<svg xmlns="http://www.w3.org/2000/svg" version="1.1" xmlns:xlink="http://www.w3.org/1999/xlink" xmlns:svgjs="http://svgjs.dev/svgjs" width="1000" height="343" viewBox="0 0 1000 343"><g transform="matrix(1,0,0,1,-0.6052588046848086,1.678804935479377)"><svg viewBox="0 0 396 136" data-background-color="#ffffff" preserveAspectRatio="xMidYMid meet" height="343" width="1000" xmlns="http://www.w3.org/2000/svg" xmlns:xlink="http://www.w3.org/1999/xlink"><defs></defs><g id="tight-bounds" transform="matrix(1,0,0,1,0.24014369220918752,-0.11072270226529213)"><svg viewBox="0 0 395.52 136.22107306696148" height="136.22107306696148" width="395.52"><g><svg viewBox="0 0 395.52 136.22107306696148" height="136.22107306696148" width="395.52"><g transform="matrix(1,0,0,1,0,89.40722200856557)"><svg viewBox="0 0 395.52 46.81385105839591" height="46.81385105839591" width="395.52"><g><svg viewBox="0 0 395.52 46.81385105839591" height="46.81385105839591" width="395.52"><g><svg viewBox="0 0 395.52 46.81385105839591" height="46.81385105839591" width="395.52"><g transform="matrix(1,0,0,1,0,0)"><svg width="395.52" viewBox="0.9634580016136169 -34.17700958251953 392.7723693847656 46.48863983154297" height="46.81385105839591" data-palette-color="#000000"><path d="M12.031-7.302v0l-0.084-0.795c1.58-0.341 2.912-0.803 3.997-1.387 1.085-0.584 1.957-1.272 2.617-2.066 0.66-0.8 1.107-1.705 1.343-2.715 0.242-1.011 0.3-2.116 0.173-3.317v0c-0.147-0.95-0.371-1.741-0.672-2.372-0.301-0.632-0.745-1.121-1.331-1.469-0.587-0.354-1.341-0.576-2.263-0.666-0.921-0.084-2.077-0.053-3.469 0.094v0c-0.51 0.054-1.05 0.121-1.618 0.201-0.561 0.086-1.168 0.18-1.82 0.282v0c0.14 0.374 0.233 0.777 0.278 1.207v0l2.898 27.488c0.069 0.656 0.188 1.21 0.356 1.662 0.168 0.452 0.412 0.821 0.73 1.109 0.319 0.288 0.734 0.506 1.245 0.654 0.512 0.147 1.139 0.249 1.883 0.304v0l-0.148 0.599c-0.989-0.03-1.837-0.038-2.547-0.023-0.71 0.008-1.297 0.036-1.761 0.085v0c-0.431 0.045-0.925 0.131-1.481 0.256-0.551 0.118-1.154 0.279-1.809 0.483v0l-0.176-0.233c0.27-0.491 0.34-1.353 0.21-2.587v0l-2.655-25.19c-0.111-1.054-0.25-1.931-0.418-2.631-0.175-0.706-0.411-1.261-0.709-1.665-0.304-0.404-0.698-0.674-1.181-0.81-0.476-0.131-1.307-0.127-2.493 0.011v0l-0.163-0.686c1.053-0.252 1.984-0.477 2.795-0.677 0.81-0.199 1.582-0.381 2.315-0.546 0.733-0.171 1.461-0.325 2.184-0.461 0.722-0.143 1.416-0.27 2.082-0.381 0.665-0.11 1.203-0.194 1.612-0.25 0.402-0.063 0.789-0.113 1.161-0.153v0c1.452-0.153 2.809-0.186 4.072-0.097 1.256 0.082 2.366 0.344 3.331 0.785 0.958 0.442 1.737 1.091 2.336 1.946 0.6 0.855 0.973 1.979 1.12 3.371v0c0.11 1.041-0.015 2.05-0.375 3.026-0.36 0.97-0.888 1.88-1.582 2.731-0.688 0.85-1.518 1.621-2.491 2.314-0.966 0.692-2.014 1.275-3.144 1.749v0l0.027 0.259 11.225 12.904c0.971 1.138 2.165 1.971 3.581 2.498v0c1.365 0.426 2.196 0.67 2.491 0.733 0.289 0.07 0.622 0.149 1 0.237v0l0.048 0.457c-2.824 0.298-5.167 0.843-7.027 1.636v0l-0.381-0.181c-0.024-0.225-0.195-0.543-0.512-0.952-0.318-0.409-0.702-0.868-1.151-1.377-0.449-0.509-1.254-1.436-2.415-2.782-1.153-1.34-4.898-5.544-11.234-12.612zM44.973-9.733l1.43 16.428 8.425-1.004c1.167-0.128 2.138-0.35 2.913-0.665 0.783-0.309 1.444-0.708 1.984-1.197 0.533-0.488 0.99-1.077 1.372-1.765 0.376-0.682 0.742-1.467 1.1-2.355v0l0.722 0.229-1.823 6.613-0.359 0.372-17.454 1.519c-0.363-0.631-0.584-1.401-0.663-2.311v0l-2.221-25.524c-0.092-1.056-0.214-1.922-0.367-2.598-0.159-0.669-0.382-1.198-0.67-1.588-0.294-0.383-0.674-0.634-1.14-0.754-0.472-0.12-1.067-0.148-1.784-0.085v0c-0.113 0.01-0.229 0.02-0.348 0.03-0.126 0.011-0.252 0.029-0.377 0.053v0l-0.151-0.69c4.494-1.114 9.487-1.91 14.98-2.387v0c2.803-0.244 5.75-0.403 8.842-0.479v0l0.205 0.394-1.762 6.176-0.798-0.171c0.08-0.623 0.127-1.192 0.143-1.709 0.022-0.517 0.011-1.022-0.031-1.513-0.042-0.485-0.145-0.938-0.309-1.358v0c-1.212-0.008-2.402 0.008-3.569 0.049-1.16 0.047-2.318 0.121-3.474 0.222v0c-2.099 0.183-4.146 0.458-6.142 0.826v0l1.181 13.568 13.067-1.869 0.262 0.248-0.954 2.07c-0.727 0.03-1.46 0.067-2.198 0.111-0.732 0.05-1.483 0.109-2.254 0.176v0c-1.249 0.109-2.518 0.243-3.809 0.402-1.298 0.16-2.621 0.338-3.969 0.536zM97.133-29.334l2.27 33.593-0.987 0.067c-1.191-1.403-4.587-5.186-10.189-11.349-5.602-6.17-9.609-10.64-12.021-13.41v0c-1.049-1.185-2.069-2.59-3.061-4.213v0l-0.143 0.11 1.847 27.337c0.041 0.612 0.273 1.071 0.695 1.377 0.415 0.313 0.863 0.513 1.343 0.6 0.48 0.088 1.141 0.177 1.983 0.267 0.841 0.083 1.336 0.137 1.484 0.161v0l0.032 0.479c-3.039 0.018-5.467 0.182-7.283 0.492v0c-0.129-0.426-0.207-0.845-0.235-1.257v0l-1.871-27.677c-0.124-1.141-0.392-2.148-0.806-3.023v0c-0.55-1.219-1.652-1.706-3.306-1.46v0l-0.032-0.479c2.203-0.717 4.386-1.148 6.548-1.294v0l19.673 21.933c0.924 1.02 1.668 1.942 2.232 2.766 0.564 0.824 1.128 1.858 1.693 3.103v0l-1.692-25.033c-0.076-1.117-0.548-1.884-1.418-2.3-0.877-0.422-2.209-0.506-3.996-0.251v0l-0.152-0.471c2.047-0.66 4.346-1.099 6.897-1.318v0c0.301 0.401 0.466 0.817 0.495 1.25zM103.729-30.243l0.264-0.562c2.335-0.32 4.599-0.573 6.793-0.76 2.194-0.186 4.366-0.329 6.517-0.426v0c2.151-0.098 4.488-0.151 7.01-0.158 2.529-0.015 5.289 0.013 8.283 0.084v0l0.313 0.496-2.002 5.957-0.8-0.204c0.087-0.571 0.147-1.101 0.178-1.59 0.038-0.496 0.046-0.96 0.027-1.392v0c-0.027-0.593-0.101-1.127-0.223-1.602v0c-2.044-0.041-3.883-0.054-5.518-0.039-1.628 0.007-3.078 0.033-4.351 0.077v0l1.33 29.25c0.03 0.659 0.115 1.219 0.256 1.68 0.141 0.461 0.365 0.844 0.673 1.151 0.301 0.307 0.699 0.549 1.194 0.726 0.489 0.178 1.106 0.317 1.851 0.417v0l-0.173 0.588c-0.965-0.09-1.802-0.148-2.511-0.176-0.709-0.035-1.307-0.041-1.792-0.019v0c-0.446 0.02-0.944 0.076-1.494 0.168-0.55 0.085-1.162 0.21-1.835 0.374v0l-0.151-0.243c0.299-0.474 0.42-1.33 0.363-2.57v0l-1.417-31.177c-1.218 0.069-2.645 0.174-4.28 0.314-1.636 0.134-3.499 0.316-5.591 0.545v0c-0.076 0.531-0.101 1.092-0.074 1.685v0c0.039 0.852 0.196 1.813 0.472 2.881v0l-0.789 0.276zM145.89-13.121v0l-11.344 0.36-0.027-0.839c1.438-0.706 2.744-1.078 3.917-1.115v0l11.344-0.361 0.027 0.84c-1.372 0.704-2.677 1.076-3.917 1.115zM151.614 1.644l14.145-33.185c0.541-0.343 1.156-0.994 1.846-1.953v0l0.24-0.004 13.843 31.74c0.618 1.416 1.849 2.398 3.693 2.945v0l0.008 0.44c-1.049-0.095-2.302-0.093-3.761 0.007-1.465 0.093-2.756 0.245-3.872 0.458v0l-0.205-0.236c0.319-0.419 0.384-1.117 0.193-2.094-0.184-0.977-0.703-2.455-1.558-4.433v0l-4.156-9.908c-4.721 0.003-8.623 0.089-11.707 0.257v0l-5.341 13.036c-0.32 0.746-0.183 1.363 0.413 1.853 0.595 0.483 1.752 0.879 3.472 1.189v0l-0.083 0.431c-2.803-0.157-5.087-0.18-6.852-0.069v0c-0.095-0.092-0.201-0.25-0.318-0.474zM166.144-28.437l-5.196 12.683c2.334 0.019 5.82-0.043 10.458-0.184v0zM195.97-13.886v0l-11.35 0.034-0.003-0.84c1.458-0.664 2.774-0.998 3.947-1.002v0l11.35-0.034 0.003 0.84c-1.391 0.664-2.707 0.998-3.947 1.002zM207.067-0.279v0c1.76 0.912 3.501 1.374 5.22 1.387v0c1.04 0.007 2.008-0.143 2.903-0.45 0.895-0.307 1.669-0.772 2.32-1.394 0.658-0.622 1.176-1.395 1.556-2.319 0.373-0.917 0.564-1.989 0.573-3.216v0c0.006-0.913-0.085-1.711-0.274-2.392-0.189-0.688-0.554-1.357-1.096-2.008-0.542-0.657-1.301-1.359-2.275-2.106-0.975-0.747-2.252-1.639-3.832-2.677v0c-2.528-1.671-4.371-3.274-5.527-4.808-1.156-1.535-1.729-3.089-1.717-4.662v0c0.011-1.547 0.344-2.901 0.998-4.063 0.648-1.156 1.501-2.12 2.56-2.893 1.059-0.773 2.253-1.351 3.582-1.735 1.329-0.384 2.674-0.571 4.034-0.562v0c2.46 0.017 4.659 0.596 6.599 1.736v0c-0.471 2.483-1.274 4.895-2.411 7.234v0l-0.657-0.345c0.104-0.606 0.185-1.185 0.242-1.738 0.064-0.56 0.098-1.083 0.101-1.57 0.003-0.493-0.017-0.943-0.061-1.35-0.05-0.414-0.114-0.804-0.192-1.171v0c-1.281-0.762-2.659-1.149-4.132-1.159v0c-0.933-0.006-1.824 0.127-2.673 0.401-0.842 0.274-1.588 0.682-2.238 1.225-0.644 0.542-1.162 1.209-1.554 1.999-0.392 0.797-0.592 1.709-0.599 2.736v0c-0.005 0.72 0.12 1.394 0.376 2.023 0.256 0.628 0.648 1.258 1.176 1.888 0.536 0.63 1.208 1.288 2.017 1.974 0.802 0.679 1.757 1.432 2.864 2.26v0c0.657 0.485 1.27 0.926 1.841 1.323 0.577 0.397 1.115 0.774 1.612 1.131 0.498 0.357 0.955 0.707 1.373 1.049 0.424 0.336 0.822 0.699 1.192 1.089v0c1.767 1.892 2.642 4.085 2.625 6.578v0c-0.012 1.667-0.315 3.101-0.91 4.304-0.595 1.203-1.402 2.187-2.421 2.953-1.012 0.76-2.196 1.318-3.552 1.676-1.349 0.351-2.78 0.521-4.293 0.51v0c-2.713-0.019-5.489-0.585-8.329-1.698v0c0.518-2.583 1.321-4.998 2.411-7.244v0l0.647 0.375c-0.193 0.899-0.294 1.998-0.303 3.298-0.009 1.3 0.065 2.104 0.224 2.411zM239.481-29.652v0l-0.657 27.342c-0.031 1.3 0.209 2.256 0.721 2.868 0.519 0.606 1.512 1.063 2.978 1.372v0l-0.224 0.575c-1.827-0.304-3.27-0.469-4.329-0.494v0c-0.946-0.023-2.049 0.081-3.309 0.311v0l-0.144-0.254c0.331-0.452 0.511-1.298 0.541-2.538v0l0.609-25.322c0.055-2.279-0.169-3.785-0.672-4.518-0.503-0.726-1.647-1.11-3.433-1.153v0l-0.073-0.702c4.481-0.552 8.078-0.796 10.79-0.731v0c1.859 0.045 3.506 0.221 4.939 0.529 1.433 0.308 2.718 0.796 3.856 1.463 1.144 0.661 2.013 1.559 2.606 2.694 0.593 1.141 0.87 2.508 0.832 4.101v0c-0.042 1.746-0.647 3.325-1.815 4.738-1.168 1.412-2.6 2.472-4.297 3.177-1.697 0.706-3.423 1.038-5.176 0.996v0c-0.686-0.017-1.199-0.062-1.537-0.137v0l0.021-0.839c1.22 0.029 2.353-0.103 3.4-0.399 1.041-0.295 1.975-0.756 2.804-1.383 0.828-0.62 1.482-1.451 1.961-2.494 0.485-1.042 0.744-2.246 0.777-3.612v0c0.053-2.199-0.458-3.955-1.534-5.268-1.082-1.313-2.803-1.998-5.162-2.055v0c-1.733-0.042-3.262 0.028-4.587 0.21v0c0.088 0.482 0.126 0.99 0.114 1.523zM277.725-32.629v0c5.362 0.233 9.414 2.104 12.157 5.613 2.743 3.516 3.984 8.268 3.724 14.256v0c-0.11 2.538-0.664 4.902-1.66 7.094-0.996 2.192-2.291 4.031-3.883 5.517-1.593 1.492-3.441 2.64-5.545 3.442-2.097 0.803-4.278 1.155-6.542 1.057v0c-2.378-0.103-4.567-0.622-6.568-1.557-2.002-0.928-3.721-2.204-5.159-3.828-1.431-1.624-2.521-3.636-3.271-6.038-0.743-2.408-1.051-5.057-0.925-7.948v0c0.111-2.551 0.669-4.946 1.674-7.184 1.005-2.238 2.302-4.134 3.89-5.686 1.589-1.546 3.436-2.747 5.542-3.603 2.113-0.856 4.301-1.234 6.566-1.135zM264.109-15.084v0c-0.103 2.364 0.053 4.54 0.467 6.526 0.421 1.987 1.028 3.671 1.822 5.054 0.794 1.389 1.743 2.575 2.848 3.557 1.112 0.983 2.291 1.711 3.539 2.186 1.247 0.481 2.553 0.752 3.918 0.811v0c1.978 0.086 3.769-0.27 5.372-1.068 1.603-0.798 2.926-1.925 3.97-3.38 1.045-1.463 1.865-3.152 2.463-5.068 0.597-1.923 0.945-3.999 1.042-6.231v0c0.126-2.904-0.126-5.537-0.758-7.9-0.625-2.356-1.525-4.28-2.701-5.773-1.176-1.493-2.531-2.649-4.063-3.47-1.532-0.821-3.171-1.269-4.917-1.345v0c-1.978-0.086-3.776 0.289-5.394 1.127-1.618 0.837-2.96 2.007-4.026 3.508-1.059 1.495-1.899 3.224-2.518 5.186-0.612 1.955-0.967 4.048-1.064 6.28zM308.412-27.114v0l-1.473 21.961c-0.118 1.763-0.051 3.244 0.203 4.444 0.26 1.2 0.666 2.173 1.218 2.918 0.558 0.746 1.246 1.296 2.064 1.652 0.825 0.356 1.743 0.568 2.753 0.635v0c0.958 0.064 1.965-0.002 3.021-0.198 1.049-0.197 2.108-0.497 3.177-0.9 1.063-0.403 2.108-0.898 3.136-1.483 1.034-0.579 2.009-1.218 2.925-1.919v0l1.437-21.421c0.071-1.058 0.08-1.946 0.028-2.664-0.045-0.725-0.183-1.312-0.413-1.762-0.224-0.449-0.562-0.783-1.015-1-0.454-0.211-0.946-0.334-1.479-0.37-0.525-0.035-0.852-0.05-0.979-0.046v0l-0.069-0.465c2.667-0.61 5.201-0.834 7.602-0.673v0c0.282 0.874 0.39 1.807 0.324 2.798v0l-1.863 27.777c-0.044 0.659-0.022 1.225 0.066 1.699 0.088 0.474 0.265 0.88 0.53 1.218 0.271 0.339 0.643 0.624 1.115 0.856 0.479 0.233 1.083 0.44 1.812 0.623v0l-0.258 0.564c-0.956-0.198-1.784-0.35-2.485-0.457-0.701-0.114-1.29-0.187-1.769-0.219v0c-0.452-0.03-0.957-0.031-1.514-0.001-0.556 0.023-1.175 0.078-1.855 0.166v0l-0.133-0.26c0.357-0.437 0.577-1.274 0.66-2.511v0l0.132-1.976c-2.775 1.718-5.261 2.925-7.459 3.619-2.199 0.701-4.226 0.989-6.081 0.865v0c-1.104-0.074-2.203-0.278-3.297-0.612-1.087-0.327-2.052-0.833-2.895-1.517-0.836-0.684-1.495-1.564-1.977-2.638-0.483-1.068-0.672-2.38-0.568-3.937v0l1.38-20.584c0.071-1.058 0.08-1.946 0.029-2.664-0.045-0.725-0.183-1.312-0.413-1.761-0.224-0.449-0.562-0.783-1.016-1.001-0.454-0.211-0.946-0.334-1.478-0.369-0.525-0.035-0.855-0.051-0.989-0.047v0l-0.059-0.465c2.667-0.61 5.211-0.833 7.632-0.67v0c0.258 0.939 0.356 1.871 0.293 2.795zM342.814 5.806v0c1.683 1.048 3.382 1.645 5.095 1.792v0c1.036 0.089 2.013 0.015 2.93-0.22 0.917-0.236 1.724-0.638 2.422-1.208 0.704-0.569 1.282-1.299 1.733-2.189 0.444-0.885 0.718-1.939 0.823-3.162v0c0.078-0.91 0.05-1.712-0.085-2.406-0.134-0.701-0.446-1.397-0.935-2.087-0.489-0.698-1.19-1.457-2.103-2.278-0.913-0.821-2.116-1.811-3.609-2.97v0c-2.389-1.864-4.1-3.607-5.132-5.227-1.032-1.621-1.481-3.215-1.347-4.783v0c0.132-1.541 0.57-2.865 1.315-3.972 0.737-1.101 1.663-1.995 2.779-2.682 1.116-0.687 2.352-1.17 3.707-1.449 1.355-0.279 2.711-0.36 4.066-0.243v0c2.451 0.21 4.598 0.96 6.441 2.248v0c-0.664 2.439-1.654 4.779-2.97 7.022v0l-0.629-0.395c0.151-0.596 0.277-1.167 0.378-1.714 0.108-0.553 0.182-1.072 0.224-1.557 0.042-0.492 0.057-0.942 0.045-1.351-0.018-0.416-0.051-0.811-0.099-1.182v0c-1.218-0.861-2.56-1.354-4.028-1.48v0c-0.93-0.08-1.829-0.016-2.696 0.19-0.861 0.207-1.637 0.556-2.328 1.045-0.684 0.49-1.253 1.114-1.706 1.871-0.454 0.764-0.724 1.658-0.812 2.681v0c-0.062 0.717 0.01 1.399 0.216 2.046 0.205 0.647 0.547 1.305 1.025 1.974 0.484 0.671 1.103 1.379 1.855 2.127 0.746 0.74 1.639 1.566 2.678 2.478v0c0.617 0.535 1.194 1.022 1.731 1.463 0.544 0.441 1.05 0.86 1.519 1.254 0.468 0.395 0.897 0.779 1.286 1.154 0.397 0.369 0.764 0.761 1.103 1.179v0c1.613 2.025 2.313 4.28 2.1 6.764v0c-0.142 1.661-0.557 3.067-1.245 4.219-0.688 1.152-1.569 2.07-2.645 2.754-1.068 0.678-2.293 1.142-3.673 1.391-1.373 0.244-2.813 0.301-4.32 0.172v0c-2.703-0.232-5.427-1.014-8.169-2.347v0c0.719-2.534 1.71-4.878 2.971-7.031v0l0.616 0.424c-0.263 0.881-0.45 1.969-0.561 3.264-0.111 1.295-0.1 2.102 0.033 2.421zM376.029-7.267l-1.698 16.402 8.463 0.605c1.17 0.094 2.165 0.06 2.986-0.103 0.827-0.156 1.552-0.422 2.174-0.8 0.616-0.379 1.176-0.87 1.681-1.475 0.498-0.599 1.006-1.3 1.525-2.104v0l0.666 0.36-3.039 6.15-0.423 0.298-17.427-1.804c-0.237-0.688-0.309-1.486-0.214-2.395v0l2.638-25.484c0.109-1.054 0.153-1.928 0.131-2.62-0.029-0.687-0.149-1.249-0.359-1.686-0.217-0.431-0.542-0.75-0.976-0.956-0.441-0.207-1.02-0.347-1.736-0.421v0c-0.113-0.012-0.229-0.024-0.348-0.036-0.126-0.013-0.253-0.019-0.38-0.019v0l-0.018-0.706c4.623-0.245 9.677-0.084 15.161 0.484v0c2.798 0.29 5.723 0.69 8.773 1.2v0l0.127 0.425-2.896 5.733-0.751-0.319c0.196-0.596 0.35-1.147 0.462-1.652 0.119-0.504 0.204-1.001 0.255-1.491 0.05-0.484 0.034-0.948-0.046-1.392v0c-1.189-0.237-2.36-0.445-3.515-0.626-1.148-0.173-2.299-0.318-3.453-0.438v0c-2.095-0.217-4.158-0.333-6.187-0.349v0l-1.403 13.548 13.186 0.631 0.21 0.293-1.327 1.854c-0.719-0.108-1.446-0.21-2.18-0.307-0.728-0.089-1.477-0.173-2.246-0.252v0c-1.247-0.129-2.519-0.237-3.817-0.325-1.305-0.088-2.637-0.162-3.999-0.223z" opacity="1" transform="matrix(1,0,0,1,0,0)" fill="#000000" class="undefined-text-0" data-fill-palette-color="primary" id="text-0"></path></svg></g></svg></g></svg></g></svg></g><g transform="matrix(1,0,0,1,174.6873874687717,0)"><svg viewBox="0 0 46.145225062456596 75.74481101248458" height="75.74481101248458" width="46.145225062456596"><g><svg xmlns="http://www.w3.org/2000/svg" viewBox="27.447834014892578 3.9994609355926514 73.10469055175781 119.99726867675781" x="0" y="0" height="75.74481101248458" width="46.145225062456596" class="icon-icon-0" data-fill-palette-color="accent" id="icon-0"><g fill="#000000" data-fill-palette-color="accent"><path d="M97.951 48.338c0.014 0 0.036 0.014 0.086 0.021a0.372 0.372 0 0 1 0.085 0.029 0.209 0.209 0 0 1 0.079-0.007 0.8 0.8 0 0 1 0.507 0.207c0.022-0.272 0.043-0.55 0.064-0.829a2.045 2.045 0 0 1-1.107-0.085c0.022 0.178 0.043 0.357 0.064 0.528a1.747 1.747 0 0 1 0.215 0.129ZM68.685 61.124c-0.121 0.007-0.242 0-0.364 0.007 0.207 2.5 0.057 2.072 1.579 2.936A6.7 6.7 0 0 1 72.128 66.2a2.565 2.565 0 0 1 0.615 1.971c0.1-0.407 1.478-0.242 1.857-0.035 0.607 0.328 0.936 1.114 1.536 0.693 1.336-0.936 0.65-3.743 0.65-5.108a7.431 7.431 0 0 1 0.543-2 3.263 3.263 0 0 0-0.079-1.85c-0.171-0.429-0.336-0.614-0.564-0.693a3.648 3.648 0 0 0-0.965-0.064 0.738 0.738 0 0 1-0.335 0.164C73.264 59.81 70.843 60.931 68.685 61.124ZM46.756 31.937a1.213 1.213 0 0 0-0.079 0.186c-0.043 0.05-0.085 0.107-0.128 0.164-0.007 0.007-0.007 0.014-0.022 0.022a2.34 2.34 0 0 1 1.222 0.943 0.808 0.808 0 0 1 0.128 0.485 2.88 2.88 0 0 1 1.858-0.185c-0.015-0.079-0.022-0.165-0.029-0.243-0.05-0.415-0.121-0.9-0.157-1.4a0.423 0.423 0 0 0-0.1-0.043 0.644 0.644 0 0 1-0.843-0.207 2.613 2.613 0 0 0-0.886-0.858 0.777 0.777 0 0 0-0.021 0.086 3.071 3.071 0 0 1-0.157 0.493 1.309 1.309 0 0 1-0.815 0.65A0.8 0.8 0 0 0 46.756 31.937Zm7.815-8.486a13.958 13.958 0 0 1-0.493-3.086 3.6 3.6 0 0 1 1.05-2.55c0.793-0.636 1.164-1.564 1.871-2.228a4.739 4.739 0 0 1 5.908-0.751c1.65 0.943 2.471 2.208 1.921 4.093A12.8 12.8 0 0 1 66.664 22.3c0.757 1.929 1.629 3.879 2.443 5.857a3.465 3.465 0 0 1 2.636 2.1c0.671-1.143 1.714-2.472 1.385-3.336a7.19 7.19 0 0 1-0.814-2.95c0.007-1.293 0.686-4.751 1.75-5.686a0.865 0.865 0 0 1 0.993-0.129 1.855 1.855 0 0 1 0.193 0.121 13.955 13.955 0 0 1 6.086-3.05 2.337 2.337 0 0 1 0.457-1.121 8.056 8.056 0 0 0-0.807-0.836 1.441 1.441 0 0 1-0.479-1.121c-0.021-0.693-0.085-1.422 0.458-1.893a5.539 5.539 0 0 1-0.151-3.35c0.815-2.422 2.172-2.736 4.529-2.9a3.559 3.559 0 0 1 3.743 3.079A15.965 15.965 0 0 1 89 9.593a0.734 0.734 0 0 1 0.2 1.008c-0.079 0.128 0.078 0.7 0.078 0.864 0 0.221 0.007 0.464-0.014 0.686a3.607 3.607 0 0 1-0.772 1.485c-0.007 0.022-0.021 0.029-0.035 0.05a2.475 2.475 0 0 1 0.828 1.75c0.536 0.1 1.072 0.2 1.636 0.3 1.807 0.314 5.379 1.271 5.822 3.485 0.421 1.5 1.436 2.872 1.928 4.343a29.233 29.233 0 0 1 1.072 6 92.453 92.453 0 0 1 0.621 11.607 24.562 24.562 0 0 1 0.05 4.736 0.69 0.69 0 0 1 0.129 0.529c-0.279 2.107-0.157 4.379-1.072 6.329-0.357 0.75-0.442 2.035-1.164 2.593a13.065 13.065 0 0 1-1.921 1.25 0.725 0.725 0 0 1-0.258 0.085c-0.1 0.765-0.221 1.536-0.314 2.329-0.143 1.136-0.807 1.986-0.807 3.214 0 1.872 0.036 3.736-0.014 5.6-0.193 7.021-1.808 14.007-2.215 21.015a0.857 0.857 0 0 1-0.293 0.593 2.437 2.437 0 0 1 0.3 0.528c0.522 1.522 0.643 3.329-0.671 4.272a0.478 0.478 0 0 1-0.429 0.336c-0.064 0-0.135 0-0.207 0.007a0.832 0.832 0 0 1-0.457 0.014c-1.6 0.093-4.114 0.322-4.372-1.25a5.5 5.5 0 0 1 0.622-3.214 2.628 2.628 0 0 1-2.243-1.872c-0.5-1.993 0.414-3.779 0.421-5.729a45.335 45.335 0 0 1 0.279-5.207 38.67 38.67 0 0 0 0.079-4.265c0-0.764 0.042-1.521 0.064-2.285 0.014-0.486 0.386-3.393-0.272-3.379-0.657 2.779-0.485 5.929-0.5 8.765-0.014 3.6-1.121 7.293-0.878 10.807 0.114 1.622-0.215 2.179-1.193 2.765a2.466 2.466 0 0 1 0.107 0.714 1.494 1.494 0 0 1-0.036 0.186 4.01 4.01 0 0 1 0.643 2.407c1 2.95 4.429 2.614 6.372 4.293 0.607 0.529 0.75 1.071 1.614 1.436a24.976 24.976 0 0 1 2.536 1.243c0.164 0.092 0.329 0.185 0.493 0.285a5.271 5.271 0 0 1 1.336 1c1.671 1.508 2.621 3.593 1.121 5.908a0.816 0.816 0 0 1-0.343 0.307c-1.114 1.314-3.857 2.257-5.421 1.593-1.793-0.757-1.879-1.522-3.415-0.014a1.406 1.406 0 0 1-0.357 0.242 4.277 4.277 0 0 1-0.2 1.429 7.043 7.043 0 0 0-0.593 1.922 0.831 0.831 0 0 1-0.186 0.45 8.154 8.154 0 0 1 1.972 4.907 0.816 0.816 0 0 1-0.407 0.707l-0.064 0.022a1.365 1.365 0 0 1-1.172 1.792c-3.05 0.779-5.986 1.872-9.065 2.579a23.553 23.553 0 0 1-4.764 0.35c-1.514 0.022-3.086 0.457-4.55 0.457-3.279 0-6.551-0.814-9.822-0.714-3.25 0.107-6.329 1.057-9.586 0.664a53.62 53.62 0 0 0-5.951-0.664 9.642 9.642 0 0 1-3.807-0.364c-1.371-0.629-2.171-1.779-3.471-2.558-0.908-0.542-2.1-0.75-2.858-1.514-1.25-1.25-0.164-3.593 0.25-5.05l-0.385-0.279c-1.486-1.028-2.272-2.357-1.572-3.95-1.971-1.25-5.436-2.793-3.357-5.722 0.843-1.178 1.536-2.042 2.936-2.178-0.079-0.057-0.157-0.129-0.257-0.207-2.6-2.143 0.978-7.008 2.257-8.7A13.655 13.655 0 0 0 35.805 88.1a25.09 25.09 0 0 1 0.972-2.836c0.721-1.807 2.643-3.293 3.107-5.115a7.317 7.317 0 0 1-0.607-0.728 1.357 1.357 0 0 1-0.029-1.393 3.779 3.779 0 0 1 0.893-0.957 7.257 7.257 0 0 0 0.608-0.522 1.261 1.261 0 0 0 0.128-0.157 0.777 0.777 0 0 1 0.307-1.079c0.036-1.321-0.914-4.728 0.029-5.678 1.078-1.072 0.921-0.186 0.586-1.493a0.825 0.825 0 0 1 0.207-0.8 6.179 6.179 0 0 1 2.093-0.986c2.435-0.993 2.821-1.643 3.814-4.1 0.522-1.293 1.107-2.565 1.657-3.85a10.41 10.41 0 0 1-4.45-2.543 0.807 0.807 0 0 1-0.15-0.272 4.546 4.546 0 0 1-0.578-0.314 0.835 0.835 0 0 1-0.372-0.929c0.029-0.121 0.057-0.235 0.086-0.357a1.038 1.038 0 0 1 0.057-0.157 13.742 13.742 0 0 1 0.929-3.329c0.628-2.221 1.142-4.536 1.985-6.693 0.786-2 1.622-4.014 2.508-5.993a3.885 3.885 0 0 1-1.9-0.164 3.189 3.189 0 0 1-0.443-0.243 1.409 1.409 0 0 1-0.558 0.114 5.017 5.017 0 0 1-1.707-0.157 4.253 4.253 0 0 1-1.264-0.814 1.465 1.465 0 0 1 0.079-2.5 1.073 1.073 0 0 1 0.192-0.115 1.541 1.541 0 0 1 0.265-0.764 3.158 3.158 0 0 1 0.535-0.622 0.859 0.859 0 0 1 0.029-0.635 2.187 2.187 0 0 1 0.321-0.515c0.115-0.178 0.15-0.2 0.1-0.05a1.687 1.687 0 0 1 0.679-0.75c0.064-0.028 0.129-0.057 0.186-0.078a2.793 2.793 0 0 1 0.514-1 1.627 1.627 0 0 1 1.622-0.293 3 3 0 0 1 1.328-0.122 1.734 1.734 0 0 1 0.5 0.136c0.943-1.586 1.922-2.614 3.522-2.878a0.391 0.391 0 0 1-0.136-0.286A2.947 2.947 0 0 1 54.571 23.451ZM98.03 46.059c1.1 0 0.692-2.807 0.692-3.636a93.931 93.931 0 0 0-0.478-11.7 30.525 30.525 0 0 0-1.386-7.115c-0.029 2.3-0.15 4.572-0.329 6.936-0.035 0.443-0.078 0.886-0.128 1.322h0.014a0.822 0.822 0 1 1 0 1.643c-0.064-0.007-0.128-0.022-0.2-0.029-0.336 2.893-0.607 5.629 0.514 8.715C96.751 42.2 98.515 46.059 98.03 46.059Zm0.278 5.25a11.237 11.237 0 0 0 0.264-1.35 0.861 0.861 0 0 1-0.371 0.065c-0.079 0-0.164-0.015-0.243-0.022a15.986 15.986 0 0 1 0.093 1.757 1.839 1.839 0 0 1-0.029 0.3A6.373 6.373 0 0 0 98.308 51.309Zm-0.7 1.808c0.036-0.122 0.079-0.236 0.121-0.35a2.281 2.281 0 0 1-0.692 0.643 0.669 0.669 0 0 1-0.579 0.3c-0.029 0.014-0.057 0.021-0.093 0.035 0 0.336-0.014 0.672-0.036 1A2.954 2.954 0 0 0 97.608 53.117Zm-1.321-3.808a11.01 11.01 0 0 0-0.35-1.621 14.937 14.937 0 0 1-0.05-2.05 0.9 0.9 0 0 1 0.085-0.357v-0.629a0.523 0.523 0 0 1 0.036-0.15A31.641 31.641 0 0 1 94.6 40.323a26.446 26.446 0 0 1-0.436-5.671 52.521 52.521 0 0 1 1.014-7.722c0.243-1.379 0.879-7.4-0.964-8.265a38.116 38.116 0 0 0-5.65-1.793 9.7 9.7 0 0 0-1.815-0.35 10.077 10.077 0 0 1 0.315 1.786 0.825 0.825 0 0 1-1.65 0 13.445 13.445 0 0 0-0.322-1.743c-0.007-0.043 0-0.078-0.007-0.121-3.179 0.021-6.914 0.95-8.743 3.014 1.279 2.293 1.164 6.608 1.257 8.493a38.984 38.984 0 0 1-0.779 10.629 0.894 0.894 0 0 1 0.122 0.665 3.8 3.8 0 0 0-0.057 0.85 1.214 1.214 0 0 1-0.05 0.25 4.02 4.02 0 0 1 0.714 2.921 0.413 0.413 0 0 1 0.122 0.057c0.278-1.471 0.671-2.935 0.9-4.336 0.171-1.042 1.757-0.6 1.585 0.436-0.321 1.936-0.578 3.886-0.721 5.85a28.18 28.18 0 0 0-0.264 5.579c0.471-0.378 1.564-0.1 2.193-0.128 0.978-0.043 1.978-0.086 2.964-0.136 1.8-0.086 3.543-0.357 5.336-0.564 1.228-0.143 2.45-0.243 3.686-0.272 0.235-0.007 0.464-0.014 0.7-0.014C94.851 49.745 96.058 50.224 96.287 49.309Zm-0.4 56.91a2.4 2.4 0 0 0 0.128-2.35 0.777 0.777 0 0 1-0.307-0.315 7.458 7.458 0 0 0-0.421-0.7 8.491 8.491 0 0 0-1.622-1.271c-1.307-0.25-2.614 1.064-4.172 1.364a14.4 14.4 0 0 1-3.764 0.179c-2.479-0.164-3.986-0.122-5.036-2.457-0.907-2-1.914-3.329-3.486-2.829 1.486 2.35 5 7.679 6.536 7.086 1.107-0.429 1.865 0.779 2.215 1.6 0.835 1.986 2.243-0.55 3.714-0.25 1.493 0.293 1.814 2.007 3.743 1.064 0.35-0.171 1.936-0.471 2.207-0.871A0.969 0.969 0 0 1 95.887 106.219Zm-2.779-47.6c0.764-1.536 0.957-4.972 0.871-6.65a3.839 3.839 0 0 0-1.335-0.593 51.412 51.412 0 0 0-7.179 0.278c-0.55 0.079-0.936 0.136-1.65 0.186v0.007a13.731 13.731 0 0 1-2.808 3.215c-0.757 0.742-1.921-0.415-1.164-1.158 0.45-0.45 0.936-0.871 1.393-1.314 0.186-0.179 0.414-0.379 0.614-0.593-0.578 0.043-1.164 0.093-1.743 0.15-0.293 0.029-0.814 0.179-1.35 0.272a15.726 15.726 0 0 0-1.5 0.735c0.25 0.958 0.793 2.529 0.979 3.243 0.228 0.886 0.55 1.643 0.836 2.508a1.35 1.35 0 0 1-0.086 1.171 8.808 8.808 0 0 0-0.664 2.95c1.221-2.057 1.614-4.407 2.821-6.457a0.82 0.82 0 0 1 1.414 0.828A41.526 41.526 0 0 0 80.9 61.724c-0.593 1.336-1.436 2.5-2.064 3.8a0.766 0.766 0 0 1-0.272 0.6c-0.064 0.157-0.128 0.315-0.185 0.486-0.486 1.422-0.536 3.743-1.693 4.872 0.128 0.335 0.25 0.671 0.364 0.993a6.557 6.557 0 0 1 0.386 4.307 4.64 4.64 0 0 0 0.893-1.079A23.146 23.146 0 0 0 79.9 71.582a0.79 0.79 0 0 1 0.507-0.522 0.732 0.732 0 0 0 0.565 0 0.724 0.724 0 0 1 0.507 0.965 23.109 23.109 0 0 1-1.529 4.143 7.163 7.163 0 0 1-1.064 1.543c-0.4 0.407-1.236 0.9-1.422 1.457-0.007 0.021-0.021 0.035-0.028 0.057 0.014 0.043 0.043 0.078 0.05 0.114 0.278 1.029-0.229 1.622-0.379 2.593a2.576 2.576 0 0 0 0.45 1.893 5.081 5.081 0 0 0 0.622-0.714c0.521-0.793 0.964-1.622 1.443-2.436a0.823 0.823 0 0 1 1.421 0.829c-0.479 0.807-0.914 1.657-1.443 2.435a11.683 11.683 0 0 1-0.778 0.993c-0.079 0.093-0.15 0.186-0.222 0.279a4.23 4.23 0 0 1 0.343 0.578c0.457 0.943 0.343 1.815 1.107 2.436a0.669 0.669 0 0 1 0.222-0.164c2.178-1.093 1.1-2.457 1.414-4.157a36.5 36.5 0 0 0 0.964-5c0.143-3.235 0.307-6.457 0.472-9.686 0.135-2.721 0.914-5.5 0.935-8.179a52.885 52.885 0 0 1 0.465-7.15c-0.022-0.057-0.05-0.114-0.072-0.171-0.371-0.993 1.222-1.422 1.586-0.436 1.557 4.179 4.286 7.6 6.343 11.5 0.493 0.936-0.921 1.765-1.414 0.829-1.586-3.007-3.536-5.743-5.086-8.729-0.064 1.15-0.093 2.3-0.157 3.443 0.628 0.779 1.378 1.429 2.064 2.15a7.135 7.135 0 0 1 1.55 2.415c0.4 0.985-1.193 1.407-1.578 0.435a6.505 6.505 0 0 0-1.6-2.171 35.646 35.646 0 0 1 0.514 4.364v8.122a58.023 58.023 0 0 1-0.05 7.472 18.988 18.988 0 0 1-0.286 2.307c-0.428 1.636-0.564 2.014 0.979 2.329a13.962 13.962 0 0 1-0.057-2.079 45.488 45.488 0 0 1 0.2-6.986c0.385-3.486 0.664-7.036 1.193-10.493 0.157-1.043 1.735-0.593 1.578 0.443-0.457 3.043-0.371 6.086-0.943 9.136a29.572 29.572 0 0 0-0.428 6.779 15.268 15.268 0 0 0 0.021 2.671 3.127 3.127 0 0 1 1.564 0.164c0.2-3.078 0.522-5.836 0.986-8.929 0.543-3.578 0.422-7.264 1.057-10.8C93.015 64.724 91.772 61.288 93.108 58.617Zm-1.986 34.33c0.3-0.207 0.386-0.45 0.372-0.979-0.008-0.285 0.035-1.2-0.25-1.393-0.393-0.271-0.536-1.05-1.172-0.857a1.135 1.135 0 0 0-0.871 0.622c-0.243 0.471-1.751 2.557-0.55 2.593C89.322 92.954 90.443 92.947 91.122 92.947Zm-0.379 7.45c0.036-0.021 0.072-0.036 0.115-0.057a2.959 2.959 0 0 1-1.836-1.429c-0.486-1.05-3.729-1.935-4.729-2.621a5.7 5.7 0 0 1-1.564-1.643c-0.929 0.543-1.814 1.193-2.722 1.8 1.365 1.272 1.608 2.486 2.479 4.222C83.572 102.84 89.443 101.076 90.743 100.4ZM86.386 12.744a11.313 11.313 0 0 0 1.086-4.7c-0.014-1.678-0.886-2.45-2.586-2.393-2.95 0.108-2.943 2.879-2.05 5.029a10.709 10.709 0 0 1 0.807 2.229A6.018 6.018 0 0 1 86.386 12.744ZM86.75 117.1c-0.007-0.114-0.007-0.243-0.007-0.393a4.313 4.313 0 0 0-1.307-2.593 11.091 11.091 0 0 1-1.871-2.343c-0.358-0.607-1.636-0.364-2.25-0.557-4.536-1.429-5.029-7.922-6.129-11.972a5.158 5.158 0 0 1-2.129 1.629 1.909 1.909 0 0 1-1.507-0.543A4.194 4.194 0 0 0 68.764 98.8c1.25 4.343 2.814 8.722 1.036 13.308-0.593 1.536 0.1 2.936-0.4 4.05 0.571 0.571 1.564 1.121 1.864 0.529a1.4 1.4 0 0 1 0.8-0.786 7.231 7.231 0 0 1 1.922-0.022c1.257 0.036 1.135-1.914 0.835-2.785a0.9 0.9 0 0 1-0.042-0.258c-2.315-1.528-2.451-7.8-2.579-9.786-0.064-1.057 1.578-1.05 1.65 0 0.071 1.15 0.793 9.115 2.357 8.458a0.848 0.848 0 0 1 1.122 0.293c1.828 2.478 4.228 1.243 6.121 3.093a7.059 7.059 0 0 1 1.35 2.128c0.5 0.1 1.072 0.165 1.579 0.222A0.966 0.966 0 0 1 86.75 117.1Zm-1.035-6.265a5.856 5.856 0 0 0 0.3-1.493 7.032 7.032 0 0 1-1.822-2.571c-0.014-0.022-2.178-0.286-2.478-0.422-1.015-0.457-2.215-2.693-2.836-3.564-0.515-0.729-1.065-1.436-1.615-2.143A45.5 45.5 0 0 0 79.15 106.8c2.265 5.394 4.186 1.143 5.658 3.651 0.221 0.371 0.45 0.721 0.678 1.057C85.558 111.283 85.636 111.062 85.715 110.833Zm1.814-95.689c-0.593-1.065-3.472-1.043-4.329-0.193A18.753 18.753 0 0 1 87.529 15.144Zm-1.586 103.84a11.028 11.028 0 0 1-1.635-0.365c-1.172 0.893-3.208 1.129-4.458 1.472a32.718 32.718 0 0 1-9.064 1.193 37.42 37.42 0 0 0-5.665 0.143 1.87 1.87 0 0 1-1.171-0.079 2.539 2.539 0 0 1-1-1.564 13.358 13.358 0 0 1-0.492-2.029c-0.022-0.064-0.036-0.107-0.05-0.164-1.243 3.6-5.243 3.364-8.329 1.764a4.763 4.763 0 0 1-3.179 2c-3.029 0.629-5.529-0.321-8.25-1.507a41.54 41.54 0 0 1-7.872-5.1c-0.414 1.15-0.979 2.843 0.071 3.136A9.478 9.478 0 0 1 37.67 119.5c1.578 1.129 1.821 2.072 4.357 2.093a36.209 36.209 0 0 1 3.943 0.186c2.4 0.307 4.986 1.05 7.372 0.393a15.116 15.116 0 0 1 5.486-0.572c2.679 0.229 5.414 0.543 8.093 0.672 2.029 0.1 4.222-0.336 6.279-0.415a25.9 25.9 0 0 0 8.357-1.386C82.343 120.177 85.05 119.677 85.943 118.984Zm-3.121-1.515a0.693 0.693 0 0 1 0.085-0.228c-0.142-0.65-2.835-1.893-3.543-1.943a2.68 2.68 0 0 1-1.207-0.372 6.04 6.04 0 0 1-1.536-1.371c0.179 1.121 0.158 2.6-0.521 3.243a2.51 2.51 0 0 1-1.429 0.7c-0.278 0.057-1.878-0.222-1.985 0.021-0.858 1.879-3.179 1.043-4.465-0.271-1.557 0.643-2.671-1.786-4.357-0.729 0.443 2.079 0.393 3.115 2.736 3.115a53.851 53.851 0 0 0 16.029-2.079A0.526 0.526 0 0 0 82.822 117.469Zm-3.615-22.4c1.107-0.614 2.936-1.65 2.85-2.157-0.357-2.036-1.407-1.621-2.843-2.457a2.688 2.688 0 0 1-0.957-1.7 7.828 7.828 0 0 0-1.507-3.243c-1.379-1.693 0.671-4.5-1.464-5.415C73.671 79.4 72.828 75.6 72.443 74.1a8.549 8.549 0 0 0-1.122 0.265c0.007 0.035 0.022 0.064 0.029 0.107a13.371 13.371 0 0 0 0.157 2.014c0.064 0.186 0.129 0.364 0.214 0.557a3.515 3.515 0 0 1 0.257 1.643C73.6 84.389 77.907 89.182 79.207 95.068ZM77.386 51.9c-0.165-1.335 0.271-3.228 0.114-4.086a10.554 10.554 0 0 1-0.028-3.185c-0.029 0.007-0.043 0.021-0.072 0.021h-0.521a2.076 2.076 0 0 1-0.329 0.171c0.586 1.415 0.279 3.015 0.364 4.508 0.05 0.9 0.265 1.721 0.243 2.628A1.146 1.146 0 0 0 77.386 51.9ZM76.043 96.626A5.978 5.978 0 0 1 77.7 95.8c-0.721-3.779-3.1-7.257-4.757-10.636-0.786-1.6-1.472-3-2.022-4.407a1.8 1.8 0 0 1-1.293 0.614c-0.557 0-1.25-0.7-1.657-1.007-0.55-0.408-0.943-0.086-1.286 0.335a0.859 0.859 0 0 1 0.2 0.472c0.193 2.971 1.565 6.293 2.529 9.107s1.972 5.586 3.029 8.372c0.707 0.143 1.664-0.6 2.707-1.386A0.889 0.889 0 0 1 76.043 96.626ZM76.1 78.332a4.8 4.8 0 0 0-0.014-4.6 0.857 0.857 0 0 1-0.872 0.371 9.652 9.652 0 0 0-1.1-0.107A9.447 9.447 0 0 0 76.1 78.332Zm0.093-47.873a30.486 30.486 0 0 0-0.972-8.537c-0.257-0.95-0.221-3.314-0.571-0.485-0.229 1.8-0.986 2.307-0.171 4.436 0.964 2.528-1.215 3.614-1.643 5.964a0.783 0.783 0 0 1-0.172 0.364c0.079 0.15 0.164 0.3 0.25 0.458 1.086 1.85 1.15 4.114 2.243 5.857a34.929 34.929 0 0 0 0.736-3.943 0.847 0.847 0 0 1-0.229-0.021 9.467 9.467 0 0 1-1.343-0.536A0.847 0.847 0 0 1 73.75 33a0.83 0.83 0 0 1 1.014-0.572 9.416 9.416 0 0 0 1.3 0.529c0.022-0.272 0.043-0.543 0.057-0.815a0.022 0.022 0 0 1-0.014-0.007 5.557 5.557 0 0 0-0.936-0.236c-1.057-0.042-1.064-1.685 0-1.642A4.521 4.521 0 0 1 76.193 30.459ZM75.486 72.5c-0.043-0.078-0.086-0.15-0.122-0.228-0.564-1.043-0.75-2.5-2.236-2.615-0.814-0.064-1.807-0.021-2.078-1.014s-0.643-2.907-2.043-3.086c-0.386-0.043-0.979-0.014-1.293-0.329-1.029-1.028-0.936-2.843-1.043-4.193-0.721-0.107-1.436-0.257-2.15-0.4 0.914 3.051 1.171 6.494 2.471 9.358a11.23 11.23 0 0 1 0.936 4.322A9.919 9.919 0 0 1 75.486 72.5Zm-0.172-23.544a7.925 7.925 0 0 0-0.228-3.443 0.848 0.848 0 0 1-0.079-0.3 7.24 7.24 0 0 1-0.778 0.072c0.164 0.521 0.328 1.043 0.492 1.557C74.943 47.524 75.136 48.238 75.314 48.959ZM74.1 43.652c2.864-0.093 1.714-2.022 0.4-3.15a3.483 3.483 0 0 1-1.372-2.15c-0.314-1.565-1.35-5.672-3.007-7.608a33.977 33.977 0 0 1 1.372 4.579c0.6 2.779 1.4 5.636 2.25 8.415A0.9 0.9 0 0 1 74.1 43.652ZM71.4 57a33.247 33.247 0 0 0 3.85 0.465c-1.079-5.829-2.729-11.515-4.164-17.28A96.124 96.124 0 0 0 67.493 28.9c-0.715-1.85-1.479-4.957-2.793-7.3l-0.008 0.007c-0.057 0.036-0.114 0.064-0.171 0.1a57.424 57.424 0 0 0 2.243 7.365c1.193 3.186 0.957 7.029 1.607 10.357C69.514 45.245 70.135 51.224 71.4 57Zm-1.507 2.043c0.471-0.185 0.964-0.335 1.457-0.478-0.822-0.15-1.643-0.3-2.429-0.436a22.894 22.894 0 0 1-5.086-1.464c-1.286-0.55-1.25-2.715-2.957-2.708-1.943 0.008-3.979 0.672-5.843-0.028a3.179 3.179 0 0 0-2.386 0.45 0.79 0.79 0 0 1 0.007 0.5c-0.271 0.9-0.564 1.821-0.886 2.757 1.293 0.386 2.565 0.679 3.572 0.907 2.557 0.586 5.136-0.3 7.636 0.143C65.371 59.1 67.464 60 69.893 59.038Zm0.364 19.715c-0.129-0.492-0.236-1.007-0.322-1.528-0.057-0.157-0.121-0.307-0.171-0.436a5.954 5.954 0 0 1-0.307-1.55A9.564 9.564 0 0 0 67.8 76.575 0.827 0.827 0 0 1 66.4 76c-0.143-1.65 0.121-3.086-0.6-4.679a17.93 17.93 0 0 1-0.886-2.785c-0.764-2.665-1.272-5.415-2.143-8.036-0.014-0.043-0.022-0.086-0.036-0.129a7.372 7.372 0 0 0-1.321-0.014c-0.307 0.028-0.6 0.043-0.9 0.057v0.007c0.928 3.257 0.757 7.315 1.207 10.679 0.364 2.729 1.036 5.622 1.386 8.479a0.844 0.844 0 0 1 0.335 0.086c0.415 0.192 1.358 0.8 1.765 0.342A10.163 10.163 0 0 1 66 79.011c0.342-0.272 0.8-0.693 1.293-0.629a5 5 0 0 1 2.478 1.236A1 1 0 0 0 70.257 78.753ZM65.314 98.1c1.75-1.1 3.143-1.836 4.721-1.164-1.057-2.793-2.085-5.593-2.914-8.479a44.5 44.5 0 0 1-1.814-6.643 4.071 4.071 0 0 1-2.029-0.436 21.867 21.867 0 0 1 0.036 2.643C63.035 88.64 64.078 93.468 65.314 98.1Zm3.493 9.679c0-3.228-0.822-5.729-1.672-8.693a9.866 9.866 0 0 0-1.371 0.693c0.371 1.336 0.743 2.65 1.086 3.936a0.82 0.82 0 0 1-1.579 0.443c-0.314-1.158-0.65-2.308-0.986-3.451a4.772 4.772 0 0 1-0.971 1.243 18.864 18.864 0 0 1-2.215 0.536h-0.014c0.657 3.936-0.536 8.7 1.522 12.208a1.3 1.3 0 0 1 0.164 0.421 1.137 1.137 0 0 1 0.121-0.15 1.81 1.81 0 0 1 0.908-0.535 2.864 2.864 0 0 1 1.985 0.05c0.036 0.021 1.307 0.907 1.85 0.742a0.622 0.622 0 0 1 0.143-0.092 0.634 0.634 0 0 0 0.079-0.529 4.65 4.65 0 0 1 0-1.779A20.981 20.981 0 0 0 68.807 107.783ZM66.907 56c0.836 0.229 1.771 0.45 2.75 0.658-1.229-5.8-2.029-11.865-3.022-17.708-0.6-3.536-0.771-7.129-1.721-10.6-0.286-1.021-0.622-2.05-0.957-3.071 0.007 3.193-0.286 6.471-0.329 9.457-0.086 5.915-1.479 11.744-1.993 17.63a2.182 2.182 0 0 1 0.5 0.15C63.971 53.367 64.742 55.424 66.907 56ZM63.792 98.961c-0.071-0.264-0.15-0.521-0.221-0.785-0.486-1.829-0.464-3.658-0.879-5.486a27.1 27.1 0 0 1-1.071-7.915c0.25-4.107-0.822-8.286-1.365-12.35-0.485-3.643-0.328-8.065-1.328-11.572a0.738 0.738 0 0 1-0.014-0.393c-0.515-0.007-1.015-0.029-1.515-0.072v19.8a72.658 72.658 0 0 0 0.293 10.051c0.257 1.85 0.986 3.571 0.822 5.45-0.243 2.743-3.136 1.157-3.879-0.172 0 0.036-0.907 1.379-1.8 2.508a19.7 19.7 0 0 0-0.236 2.521c0 0.522-0.321 3.593 1.707 2.236 1.322-0.879 2.057-2.236 3.136-3.35a0.836 0.836 0 0 1 1.164-0.007c0.543 0.478 0.872 1.728 1.715 1.628 0.714-0.092 1.35-0.464 2.078-0.528C62.857 100.483 63.185 99.49 63.792 98.961ZM62.114 17.087a5.291 5.291 0 0 1 1.143 0.492c-0.4-1.585-2.922-2.328-4.293-1.45-1.536 0.986-0.736 1.029-1.343 1.715a3.652 3.652 0 0 1-0.415 0.385c0.229 0.593 0.972 0.543 1.179 1.293 0.036 0.15 0.057 0.3 0.079 0.45a7.305 7.305 0 0 1 2.628-3.085A0.77 0.77 0 0 1 62.114 17.087ZM61.971 35.8c0.036-2.758 0.05-5.508 0.05-8.265-0.629 2.614-1.079 5.257-1.514 7.915-0.536 3.285-1.208 6.521-1.872 9.779-0.529 2.614-1.722 4.836-2.564 7.343 1.035 0.407 2.55-0.015 3.921-0.2C60.478 46.866 61.892 41.323 61.971 35.8Zm-0.222-14.108l-0.235-0.193a26.742 26.742 0 0 0-1.886 4.579c-0.829 3.35-1.757 6.564-2.779 9.864-1.15 3.744-2.378 7.4-3.75 11.072a32.9 32.9 0 0 1-2.829 6.658c0.779-0.322 1.565-0.65 2.336-0.979a18.09 18.09 0 0 1 1.922-0.664c0.728-2.107 1.893-4.107 2.335-6.3 0.558-2.772 1.172-5.508 1.651-8.294 0.535-3.121 1.078-6.2 1.707-9.307C60.621 26.151 61.464 23.887 61.749 21.694Zm-1.035 95.954a8.612 8.612 0 0 1 0.55-1.657c-2.458-3.3-1.158-9.815-1.836-13.415-0.586-0.25-0.943-0.836-1.436-1.514-0.5 0.607-1.036 1.335-1.629 1.978a0.636 0.636 0 0 1 0.308 0.5c0.407 2.822 1 5.679 1.193 8.522 0.085 1.271 0.957 4.386-0.065 5.4a5.128 5.128 0 0 1-1.671 0.915C57.971 119.019 60.256 119.362 60.714 117.648Zm-0.45-97.09l-0.15-0.107a32.154 32.154 0 0 0-1.743 3.886c-0.557 1.371-1.35 2.6-1.958 3.943-1.085 2.393-2.678 4.514-3.785 6.886-1.279 2.743-2.4 5.557-3.622 8.322a46.532 46.532 0 0 0-1.979 6.193c-0.321 1.136-1.421 3.128-1.25 4.307a0.928 0.928 0 0 1-0.028 0.4 21.306 21.306 0 0 1 2.371-0.271 0.794 0.794 0 0 1 0.215-0.579c2.5-2.779 3.878-8.25 5.021-11.8q1.543-4.812 3.036-9.629c0.736-2.336 0.85-5.279 1.986-7.444A35.665 35.665 0 0 0 60.264 20.558Zm-2.886 1.8c-0.136-0.5-0.372-0.971-0.479-1.486a2.863 2.863 0 0 1-0.143-0.685c0-0.022 0.007-0.036 0.007-0.05V20.13a2.239 2.239 0 0 1-0.742-0.722c-0.915 1.55 0.614 2.829 0.207 4.393A10.869 10.869 0 0 1 55.1 26.08a0.419 0.419 0 0 1-0.086 0.243c0.058 0.007 0.1 0 0.158 0.007a0.885 0.885 0 0 1 0.371 0.128c0.15-0.285 0.307-0.564 0.457-0.85C56.471 24.68 56.906 23.53 57.378 22.358ZM55.642 93.883c0.543 0.971 1.736 2 1.129-0.258a24.225 24.225 0 0 1-0.558-2.95c-0.692-4.771-0.242-9.679-0.242-14.486V60.367a0.877 0.877 0 0 1 0.021-0.143c-0.486-0.071-0.979-0.164-1.464-0.278a0.654 0.654 0 0 1 0.035 0.242c-0.342 4.351-1.157 8.708-1.7 13.037-0.421 3.335-0.635 6.828-1.278 10.129a0.835 0.835 0 0 1-0.793 0.6 3.557 3.557 0 0 1-0.386 0.014c-0.193 2.571-0.686 5.143-1.064 7.686a51.019 51.019 0 0 1-1.007 5.85c1.607-0.171 3.021-0.321 4.121-1.907 0.329-0.471 1.086-1.922 1.829-2.129A1.287 1.287 0 0 1 55.642 93.883Zm0.557 22.479c0.9-0.136-0.807-10.365-1.086-12.236a2.967 2.967 0 0 1-1.564 0.507 55.227 55.227 0 0 0-0.057 5.55 11.792 11.792 0 0 1-0.072 3.508 6.807 6.807 0 0 1 1.065 3.385A14.174 14.174 0 0 1 56.2 116.362Zm-2.378-86.8c0.307-0.536 0.614-1.079 0.921-1.615a4.512 4.512 0 0 0-1.543 0.164 1.2 1.2 0 0 1 0.193 0.229 3.261 3.261 0 0 1 0.3 0.729Q53.767 29.312 53.821 29.559Zm-0.908 30.629a0.828 0.828 0 0 1 0.293-0.578c-0.586-0.165-1.171-0.343-1.778-0.565L51.292 59C50.42 61.4 49.42 63.8 48.377 65.96a2.286 2.286 0 0 1-1.192 0.972 0.71 0.71 0 0 1 0.142 0.492c-0.257 3.843 0.179 8.651-2.65 11.558-0.985 1.014-2.1 1.893-3.036 2.95-0.964 1.079 1.786 0.643 1.865 0.636 2.207-0.15 0.957-1.529 2.55-1.964 0.929-0.258 3.35 1.257 3.9 1.557 0.007 0 0.814-5.743 0.922-6.522C51.556 70.517 52.513 65.339 52.913 60.188Zm-0.228-28.615a0.007 0.007 0 0 1-0.007-0.007c-0.222-0.615-0.336-1.257-0.515-1.879a1.664 1.664 0 0 0-0.243-0.507 3.017 3.017 0 0 0-0.678 1.521 21.308 21.308 0 0 0 0.164 2.929 2.46 2.46 0 0 1 0.029 0.279C51.835 33.123 52.249 32.344 52.685 31.573ZM51.856 104.3a0.736 0.736 0 0 1 0.043-0.178c-1.243-0.907-1.171-2.736-0.95-4.429-1.086 0.286-1.907-0.657-3.064-0.493a0.714 0.714 0 0 1-0.122-0.007 74.122 74.122 0 0 1-1.629 9.186c-0.307 1.307-1.8 3.293-0.635 4.472 1.628 1.657 4.507 0.664 6.307 0.035 0.014-0.471-0.121-1.107-0.121-1.435V108.9A36.624 36.624 0 0 1 51.856 104.3Zm0.957 12.479c-0.164-1.35-0.578-2.471-2.228-1.414a3.2 3.2 0 0 1-2.243 0.35c-1.708-0.393-4.315-1.436-5.272-3.064-0.614-1.05 0.986-2.6 1.214-3.572a78.009 78.009 0 0 0 1.872-10.207c-0.436-0.986-1.543-3.365-2.193-2.651a14.071 14.071 0 0 1-1.15 1.122 0.482 0.482 0 0 1 0.05 0.171c0 2.143-0.243 4.279-0.2 6.358a9.907 9.907 0 0 1-0.536 4.593 17.576 17.576 0 0 1-1.343 2.057c-0.95 1.422-1.543 1.943 0.143 2.843 1.864 1 5.243 4.379 7.093 4.264C49.656 117.534 51.235 116.848 52.813 116.776Zm-2.686-59.7q0.377-0.91 0.686-1.843a11.584 11.584 0 0 1-2.964 0.757A14.287 14.287 0 0 0 50.127 57.074ZM50.37 36.1c0.015-0.029 0.022-0.05 0.036-0.072a2.581 2.581 0 0 1-0.414-0.829 0.384 0.384 0 0 1-0.093 0.008c-0.443-0.022-1.007-0.25-1.272 0.028a2.071 2.071 0 0 1-0.635 0.479c-0.222 0.107-0.165-0.043-0.079 0.178 0.164 0.415 1.086 0.265 1.407 0.265C49.67 36.152 50.02 36.116 50.37 36.1Zm-3.914 83.574c0.493 0.086 5.636 0.693 6.186-0.864-1.164 0.093-2.286 0.314-3.572 0.386-3.093 0.186-4.043-1.079-6.271-2.829-1.293-1.014-4.793-1.657-4.793-3.736 0-2.878 3.107-4.65 3.035-7.836-0.028-1.336 0.029-2.557 0.086-3.864-0.521 1.221-1.121 2.421-1.6 3.686-0.393 1.035-0.971 2.785-2.186 2.921-0.971 1.557-6.736 1.936-2.664 5.115a47.689 47.689 0 0 0 6.886 4.871A19.679 19.679 0 0 0 46.456 119.669Zm3.093-87.782v-0.014c-0.014-0.014-0.036-0.022-0.05-0.036ZM47.763 91.218c0.343-2.536 0.879-5.114 1.036-7.664-0.522-0.229-1.022-0.522-1.514-0.786-0.922-0.486-0.9 0.378-1.479 1.029-0.422 0.464-1.893 0.678-3.236 0.642-0.85 1.679-1.25 3.515-2.321 5.093-1.086 1.6-0.979 3.472-1.6 5.265-0.035 0.093-0.078 0.193-0.114 0.286 0.022 0.021 0.043 0.035 0.072 0.064 3.664 3.664 3.271-1.836 6.243-1.014 0.885 0.243 1.535 1.314 2.043 2.385C47.313 94.776 47.527 92.918 47.763 91.218Zm-0.036-60.424c0.065-0.007 0.058-0.185 0 0ZM46.563 34.68a2.374 2.374 0 0 1 0.336-0.214 0.789 0.789 0 0 1-0.572-0.379c-0.221-0.364-0.7-0.35-0.707 0.029a1.391 1.391 0 0 1-0.586 1.107 1.5 1.5 0 0 1-0.264 0.129 3.385 3.385 0 0 0 0.407 0.3 2.772 2.772 0 0 0 1.072 0.228A1.345 1.345 0 0 1 46.563 34.68Zm-0.886 32.8c-0.1 0.035-0.2 0.071-0.293 0.107-1.578 0.643-1.128 0.8-1.221 2.071a0.86 0.86 0 0 1-0.6 0.793c-1.193 0.429-0.507 4.172-0.822 5.579a0.77 0.77 0 0 1-0.214 0.4 2.2 2.2 0 0 1-0.907 1.536c-0.207 0.171-0.429 0.335-0.629 0.521-0.335 0.314-0.214 0.186 0.05 0.493a2.082 2.082 0 0 1 0.4 0.786c0.1-0.086 0.193-0.165 0.286-0.25a8.476 8.476 0 0 0 3.386-6.336C45.306 71.275 45.549 69.389 45.677 67.482ZM40.863 84.211a1.624 1.624 0 0 1-0.65-0.314 2.9 2.9 0 0 1-0.372-0.443 11.478 11.478 0 0 0-1.1 1.593c-0.971 1.778-1.021 4.3-2.15 5.914-1.378 1.972-4.371 4.086-4.464 6.636a4.423 4.423 0 0 0 1.55 3.322 21.241 21.241 0 0 1 1.107-2.4c0.557-1.151 0.65-2.308 1.507-3.251 1.579-1.743 0.957-3.043 1.479-4.943 0.321-1.171 1.407-1.95 1.886-3.057C40.091 86.247 40.42 85.211 40.863 84.211Zm-0.657 14.343a5.7 5.7 0 0 1-2.479-1.95c-0.407 0.679-0.843 1.343-1.136 1.95-1.193 2.422-2.2 4.258-0.221 6.693 0.143 0.172 0.271 0.343 0.4 0.529a0.862 0.862 0 0 1 0.221 0.05C37.327 105.962 39.384 100.819 40.206 98.554Zm-5.186 8.515c0.907-0.443-0.536-1.6-1-2.3a3.867 3.867 0 0 1-0.643-1.607 6.6 6.6 0 0 1-1.293 0.071q-2.861-0.332-1.236 4.286a10.005 10.005 0 0 0 1.614 0.743 0.549 0.549 0 0 1 0.1 0.05A20.988 20.988 0 0 1 35.02 107.069Z" fill="#000000" data-fill-palette-color="accent"></path><path d="M93.6 25.287c1.007 0.321 0.578 1.907-0.436 1.586a11.243 11.243 0 0 1-2.879-1.336c-0.878-0.579-0.057-2 0.836-1.414a10.741 10.741 0 0 0 1.272 0.742A8.027 8.027 0 0 0 93.6 25.287Z" fill="#000000" data-fill-palette-color="accent"></path><path d="M93.422 22.251c0.993 0.35 0.564 1.936-0.436 1.586a8.249 8.249 0 0 0-2.285-0.779c-1.05-0.035-1.058-1.678 0-1.643A9.336 9.336 0 0 1 93.422 22.251Z" fill="#000000" data-fill-palette-color="accent"></path><path d="M92.979 54.074a0.818 0.818 0 0 1-1.157 1.157c-0.171-0.193-0.286-0.436-0.45-0.621a0.844 0.844 0 0 1 0-1.165 0.83 0.83 0 0 1 1.164 0C92.708 53.638 92.815 53.881 92.979 54.074Z" fill="#000000" data-fill-palette-color="accent"></path><path d="M92.994 19.208c0.9 0.557 0.071 1.979-0.829 1.422a3.119 3.119 0 0 0-0.607-0.279 0.819 0.819 0 1 1 0.436-1.579A4.656 4.656 0 0 1 92.994 19.208Z" fill="#000000" data-fill-palette-color="accent"></path><path d="M92.179 57.374c0.686 0.8-0.471 1.964-1.164 1.164-0.664-0.778-1.357-1.528-1.964-2.35A10.429 10.429 0 0 1 87.5 54.067c-0.392-0.986 1.193-1.408 1.586-0.436 0.257 0.636 1.007 1.15 1.386 1.729A19.9 19.9 0 0 0 92.179 57.374Z" fill="#000000" data-fill-palette-color="accent"></path><path d="M87.422 23.087c0.043 6.929 0.536 20.851 0.536 20.851 0 0.714-1.65 0.714-1.65 0 0-7.143-0.486-13.9-0.536-20.83A0.826 0.826 0 0 1 87.422 23.087Z" fill="#000000" data-fill-palette-color="accent"></path><path d="M88.315 46.352a9.776 9.776 0 0 1-0.75 2.986c-0.329 1-1.915 0.571-1.579-0.443a8.668 8.668 0 0 0 0.679-2.543A0.825 0.825 0 0 1 88.315 46.352Z" fill="#000000" data-fill-palette-color="accent"></path><path d="M81.607 65.953c0.4-0.964 1.986-0.543 1.586 0.436-0.328 0.8-0.578 1.628-0.9 2.435-0.264 0.672-0.664 1.229-0.971 1.872a0.7 0.7 0 0 1-0.35 0.364 0.9 0.9 0 0 0-0.565 0 0.886 0.886 0 0 1-0.5-1.2c0.315-0.664 0.729-1.236 0.986-1.943C81.136 67.26 81.343 66.6 81.607 65.953Z" fill="#000000" data-fill-palette-color="accent"></path><path d="M80.407 71.06a0.9 0.9 0 0 1 0.565 0A0.732 0.732 0 0 1 80.407 71.06Z" fill="#000000" data-fill-palette-color="accent"></path></g></svg></g></svg></g><g></g></svg></g></svg><rect width="395.52" height="136.22107306696148" fill="none" stroke="none" visibility="hidden"></rect></g></svg></g></svg>